<?xml version="1.0" encoding="UTF-8"?>
<svg id="_Шар_1" data-name="Шар 1" xmlns="http://www.w3.org/2000/svg" viewBox="0 0 1212.89 330.3">
  <defs>
    <style>
      .cls-1 {
        fill: #fff;
      }

      .cls-2 {
        fill: #fdde50;
      }

      .cls-3 {
        fill: #5eb157;
      }

      .cls-4 {
        fill: #5d5d5f;
      }

      .cls-5 {
        fill: #9bc559;
      }
    </style>
  </defs>
  <path class="cls-1" d="m432.07,193.39h70.57c36.66,0,56.82-16.73,56.82-46.74,0-19.25-8.94-32.31-25.66-37.81,15.35-6.64,23.6-19.93,23.6-38.03,0-29.1-20.62-46.97-54.76-46.97h-70.57v169.55Zm66.68-137.02c13.52,0,20.62,6.19,20.62,18.1s-7.33,18.79-20.62,18.79h-29.56v-36.89h29.56Zm1.83,68.05c13.52,0,20.85,6.19,20.85,17.64,0,12.6-7.1,18.79-20.85,18.79h-31.39v-36.43h31.39Zm71.27,5.27c0,40.56,27.27,66.45,69.66,66.45s70.11-26.12,70.11-66.45V23.83h-37.12v103.34c0,20.85-11.91,32.99-32.99,32.99s-32.54-11.69-32.54-32.99V23.83h-37.12v105.86Zm199.55-105.86h-37.12v169.55h104.02v-34.37h-66.91V23.83Zm115.86,0h-37.12v169.55h104.02v-34.37h-66.91V23.83Zm186.43,169.55v-34.37h-70.57v-35.06h62.55v-32.54h-62.55v-33.22h70.57V23.83h-107.69v169.55h107.69Zm5.85-135.19h48.12v135.19h37.12V58.2h48.12V23.83h-133.35v34.37Z"/>
  <path class="cls-1" d="m437.15,304.8l4.87-13.22h22.97l4.87,13.22h5.22l-18.51-49.83h-6.19l-18.3,49.83h5.08Zm15.66-42.8c.28-.7.56-1.6.63-2.02.07.49.42,1.32.63,2.02l9.33,25.19h-19.84l9.26-25.19Zm55.07-3.13c7.31,0,13.15,3.48,15.24,10.3h5.43c-1.95-9.05-10.09-15.03-20.6-15.03-14.27,0-24.01,10.72-24.01,25.96s9.74,25.54,23.87,25.54c8.07,0,14.34-3.76,16.98-8.7l.49,7.93h3.97v-27h-22.76v4.45h18.03v2.58c0,11.97-8.14,16.01-16.49,16.01-11.2,0-18.86-7.86-18.86-20.81s7.24-21.23,18.72-21.23Zm43.29,45.93v-20.67h14.55l10.16,20.67h5.57l-10.65-21.51c6.4-1.74,10.16-6.75,10.16-13.92,0-8.84-6.12-14.41-16.22-14.41h-18.58v49.83h5.01Zm0-45.31h13.57c6.82,0,11.07,3.55,11.07,10.02s-4.04,10.09-10.93,10.09h-13.71v-20.11Zm90.6,20.39c0-15.17-9.74-25.82-23.73-25.82s-23.73,10.72-23.73,25.82,9.74,25.75,23.73,25.75,23.73-10.65,23.73-25.75Zm-5.15,0c0,12.39-7.59,20.95-18.58,20.95s-18.51-8.49-18.51-20.95,7.52-20.95,18.51-20.95,18.58,8.49,18.58,20.95Zm26.21,24.92v-22.97h26.93v22.97h4.94v-49.83h-4.94v22.2h-26.93v-22.2h-5.01v49.83h5.01Zm95.42-24.92c0-15.17-9.74-25.82-23.73-25.82s-23.73,10.72-23.73,25.82,9.74,25.75,23.73,25.75,23.73-10.65,23.73-25.75Zm-5.15,0c0,12.39-7.59,20.95-18.58,20.95s-18.51-8.49-18.51-20.95,7.52-20.95,18.51-20.95,18.58,8.49,18.58,20.95Zm26.21-24.92h-5.01v49.83h27.91v-4.59h-22.9v-45.24Zm52.53,49.83c14.96,0,24.92-10.02,24.92-24.92s-10.02-24.92-25.06-24.92h-15.03v49.83h15.17Zm-.35-45.24c12.32,0,20.11,7.86,20.11,20.32s-7.79,20.32-19.97,20.32h-9.95v-40.64h9.81Zm46.29-4.59h-5.01v49.83h5.01v-49.83Zm24.09,49.83v-41.48l27.49,41.48h4.94v-49.83h-4.94v41.48l-27.42-41.48h-5.08v49.83h5.01Zm72.44-45.93c7.31,0,13.15,3.48,15.24,10.3h5.43c-1.95-9.05-10.09-15.03-20.6-15.03-14.27,0-24.01,10.72-24.01,25.96s9.74,25.54,23.87,25.54c8.07,0,14.34-3.76,16.98-8.7l.49,7.93h3.97v-27h-22.76v4.45h18.03v2.58c0,11.97-8.14,16.01-16.49,16.01-11.21,0-18.86-7.86-18.86-20.81s7.24-21.23,18.72-21.23Z"/>
  <g>
    <path class="cls-2" d="m0,1.45v206.22c10.81-.56,49.66-3.79,81.51-33.04,7.64-7.01,41.43-39.92,36.29-87.75-.83-7.68-4.89-45.45-40.8-69.64C43.6-5.26,6.88.29,0,1.45Z"/>
    <path class="cls-3" d="m117.42,142.64c.38,62.22.75,124.43,1.13,186.65-9.57,1.33-27.49,2.51-47.99-4.47-36.08-12.28-53.18-40.66-56.84-47.09C-.6,252.64-.43,228.53.22,218.51c9.5-.18,23.6-1.39,39.81-6.46,11.84-3.7,34.17-10.98,53.76-31.54,6.47-6.79,16.54-19.12,23.62-37.87Z"/>
    <path class="cls-5" d="m173.17.14c6.44,0,12.89.26,19.32-.05,15.67-.75,30.32,3.3,44.33,9.65,13.91,6.31,25.98,15.42,35.77,27.19,15.79,18.97,25.29,40.59,25.73,65.59.3,16.88.09,33.76.27,50.64.05,4.24-1.55,5.86-5.83,5.83-21.93-.17-43.9.7-65.78-.39-31.7-1.58-56.98-16.04-76.04-41.48-13.34-17.81-18.88-37.97-18.81-59.95.06-16.36.04-32.72.08-49.08.02-7.34.04-7.58,7.55-7.72,11.13-.22,22.26-.06,33.39-.06,0-.06,0-.11,0-.17Z"/>
    <path class="cls-1" d="m262.82,81.9c-2.81-7.55-7.51-20.17-19.29-31.73-11.02-10.81-22.61-15.24-28.17-17.37-10.72-4.1-22.02-6.08-33.59-5.94-2.85.04-5.13,2.38-5.09,5.23.04,2.83,2.34,5.09,5.16,5.09h.07c9.7-.14,19.21,1.47,28.26,4.73-3.6,2.81-7.28,6.54-10.43,11.48-5.67,8.92-7,17.77-7.12,23.63-.06,2.85,2.21,5.21,5.06,5.26.03,0,.07,0,.1,0,2.8,0,5.1-2.24,5.16-5.06.09-4.54,1.12-11.39,5.51-18.29,4.04-6.35,9.32-10.1,13.06-12.14,4.53,2.39,9.71,5.77,14.78,10.75,5.69,5.58,9.46,11.44,12.14,16.78-5.65,2.4-13.16,7.01-18.45,15.68-4.98,8.17-5.81,16.32-5.63,21.71.09,2.79,2.38,4.99,5.16,4.99.06,0,.12,0,.17,0,2.85-.09,5.08-2.48,4.99-5.33-.13-3.99.48-10.01,4.13-16,3.91-6.41,9.5-9.81,13.7-11.58.22.58.43,1.16.64,1.7,3.62,9.73,5.56,20.03,5.76,30.61.05,2.82,2.35,5.07,5.16,5.07.03,0,.06,0,.1,0,2.85-.05,5.12-2.4,5.07-5.26-.22-11.75-2.37-23.19-6.4-34.02Z"/>
    <path class="cls-4" d="m296.04,324.4c.04,3.97-1.37,5.61-5.13,5.73-.2.01-.4.01-.61.01-3.59-.03-7.18-.03-10.77,0-11.02.04-22.04.22-33.05.14-3.79-.02-7.56-.07-11.34-.16-3.2-.08-6.4-.2-9.6-.36-5.47-.28-10.75-.94-15.84-1.99-3.74-.76-7.36-1.73-10.88-2.9-17.08-5.66-31.71-16.03-43.96-30.66-1.44-1.71-2.83-3.47-4.2-5.29-1.64-2.18-3.15-4.39-4.55-6.65-9.25-14.87-13.49-31.25-13.93-48.86-.03-1.17-.04-2.35-.04-3.53.01-2.95.02-5.91.02-8.86.02-8.82.02-17.63.04-26.44,0-4.22.01-8.45.02-12.68v-.36c.02-7.22.04-7.46,7.44-7.6,10.95-.21,21.92-.05,32.88-.05v-.16c6.34,0,12.7.26,19.03-.05,15.42-.74,29.85,3.25,43.65,9.51,2.2,1,4.36,2.07,6.47,3.23,4.65,2.5,9.07,5.37,13.22,8.58,5.67,4.35,10.85,9.34,15.52,14.95,5.43,6.52,10.1,13.37,13.91,20.56,1.99,3.75,3.74,7.59,5.23,11.54,3.84,10.15,6,20.95,6.2,32.49.29,16.62.09,33.25.27,49.87Z"/>
    <path class="cls-1" d="m290.75,328.93c-.92-5.35-1.69-10.78-3.24-15.96-3.49-11.59-9.11-27.69-13.32-39.02-2.68-7.18-6.5-13.92-9.91-20.82-1.54-3.14-1.28-5.18,2.6-5.94,5.36-1.04,16.79-4.22,22.19-5.06.16-.03.33-.05.49-.08-1.49-3.94-3.24-7.79-5.23-11.54-6.06,1.62-15.89,4.33-20.81,5.84-8.1,2.49-9.3,1.97-14.27-3.6-4.76-5.34-9.97-10.3-15.28-15.09-3.87-3.49-8.24-6.42-12.74-9.87,1.44-.99,2.44-2.04,3.64-2.45,7.58-2.57,20.92-6.97,28.47-9.63.5-.19,1.04-.42,1.55-.72-4.16-3.21-8.57-6.08-13.22-8.58-8.49,3.21-22.24,9.03-30.75,11.86-3.03,1.01-6.87.48-10.12-.3-6.68-1.61-13.14-4.7-19.78-6.63-7.13-2.06-14.31-3.95-21.62-5.29-9.03-1.66-18.15-2.7-27.21-4.16-.01,4.23-.02,8.46-.02,12.68,13.76,2.19,31.91,4.35,45.13,7.1,5.63,1.16,10.83,4.06,16.15,6.14-6.22,5.51-12.3,10.05-17.29,15.58-3.79,4.21-7.66,4.33-12.43,3.44-8.75-1.63-22.36-4.17-31.6-5.82,0,2.95-.01,5.91-.02,8.86,0,1.18.01,2.36.04,3.53,8.18,1.1,20.11,3.23,27.53,4.36,3.53.54,4.01,2.22,2.11,5.37-7.03,11.64-12.61,25.9-15.7,39.12,1.4,2.25,2.91,4.47,4.55,6.65,1.37,1.82,2.76,3.58,4.2,5.29.06-.14.1-.29.13-.44,3.21-15.89,10.05-32.34,18.07-46.39,2.01-3.54,4.15-4.57,7.88-3.21,11.33,4.13,20.92,10.83,29.01,19.65,5.39,5.89,4.99,7.14,1.44,14.47-6.66,13.75-12.27,30.98-12.57,46.58,3.52,1.17,7.14,2.14,10.88,2.9.02-.11.03-.22.04-.33.79-7.12,3.5-17.33,5.19-24.28,1.53-6.34,4.13-12.43,6.65-19.8,1.63,2.04,2.69,2.9,3.14,4.01,4.94,12.21,9.21,29.24,10.38,42.44.01.1.02.21.04.31,3.78.09,7.55.14,11.34.16.02-.6,0-1.22-.05-1.87-1.26-17.5-7.32-38.22-14.99-53.79-1.36-2.78-1.55-4.84.81-6.79,4.61-3.79,9.2-7.61,13.99-11.16,2.39-1.76,4.96-1.42,6.58,1.41,3.21,5.62,6.63,11.14,9.42,16.98,7.69,16.04,13.97,37.65,17.3,55.08,3.59-.03,7.18-.03,10.77,0,.21,0,.41,0,.61-.01-.03-.39-.08-.8-.15-1.2Zm-52.1-81.32c-4.61,2.82-8.7,6.51-12.87,9.99-2.09,1.74-3.71,2.06-5.63-.22-9.28-11.09-20.85-19.04-35.34-26.04,4.19-3.56,8.31-7.19,12.6-10.62,2.13-1.7,4.42-3.4,6.93-4.35,1.81-.7,4.56-.99,6.09-.09,10.92,6.35,21.25,13.48,29.47,23.32,2.87,3.43,2.9,5.47-1.25,8.02Z"/>
  </g>
</svg>