<svg width="14" height="14" viewBox="0 0 14 14" fill="none" xmlns="http://www.w3.org/2000/svg">
<path d="M13.9992 10.4378V13.188C13.9993 13.3849 13.9247 13.5745 13.7905 13.7186C13.6562 13.8627 13.4724 13.9504 13.2759 13.9642C12.9361 13.9876 12.6584 14 12.4438 14C5.57091 14 0 8.42878 0 1.55556C0 1.34089 0.011666 1.06322 0.0357758 0.723334C0.0495591 0.526901 0.137333 0.343008 0.281387 0.208762C0.425441 0.0745164 0.61505 -8.90035e-05 0.811955 1.99562e-07H3.56202C3.65849 -9.74824e-05 3.75156 0.0356681 3.82313 0.100349C3.89471 0.16503 3.93969 0.254009 3.94934 0.35C3.96722 0.528889 3.98356 0.671222 3.99911 0.779333C4.15367 1.85805 4.47042 2.9072 4.93861 3.89122C5.0125 4.04678 4.96428 4.23267 4.82429 4.33222L3.14594 5.53156C4.17212 7.9228 6.07764 9.82842 8.46875 10.8547L9.66646 9.17933C9.71542 9.11089 9.78684 9.0618 9.86828 9.04062C9.94972 9.01944 10.036 9.02752 10.1121 9.06344C11.096 9.53078 12.1448 9.84676 13.223 10.0007C13.3311 10.0162 13.4735 10.0333 13.6508 10.0504C13.7466 10.0603 13.8354 10.1053 13.8999 10.1769C13.9645 10.2485 13.9993 10.3414 13.9992 10.4378Z" fill="white"/>
</svg>
